<?xml version="1.0" encoding="utf-8"?>
<svg version="1.1" id="Layer_1" xmlns="http://www.w3.org/2000/svg" xmlns:xlink="http://www.w3.org/1999/xlink" x="0px" y="0px"
	 viewBox="0 0 1920 1080" style="enable-background:new 0 0 1920 1080;" xml:space="preserve">
<style type="text/css">
	.st0{fill:#754C24;}
	.st1{fill:#333333;}
	.st2{fill:#4D4D4D;}
	.st3{fill:#F69B76;}
	.st4{fill:#F8C09D;}
	.st5{fill:#F6AE8D;}
	.st6{fill:#EF937E;}
	.st7{fill:none;stroke:#EF937E;stroke-width:4.5315;stroke-linecap:round;stroke-miterlimit:10;}
</style>
<path class="st0" d="M818.5,864.7l-33.8,23.2l45.3,66.9c0,0,13.4-12.9,5.2-31.2c-8.3-18.4-27.1-25.8-27.1-25.8l21.3-17.2
	L818.5,864.7z"/>
<path class="st1" d="M811.3,853.4l20.3,32.5c0,0,73.1-35.8,101.2-100.9s25.4-194.1,25.4-194.1l-37.6-16.3c0,0,6.2,129-26.3,196.1
	C870.4,820,811.3,853.4,811.3,853.4z"/>
<path class="st0" d="M1044.8,911.2l0.7,41l80.8-1c0,0-3.4-18.3-23.2-21.5c-19.9-3.2-36.4,8.4-36.4,8.4l-2.6-27.3L1044.8,911.2z"/>
<path class="st2" d="M1036.3,913h38.3c0,0,6-66.5-5.3-136c-14.4-89-137-172.6-137-172.6l-28.1,36.7c0,0,111.6,64.9,125.7,147.5
	C1040.7,852.1,1036.3,913,1036.3,913z"/>
<path class="st3" d="M979.6,398.8L979.6,398.8c-5.2,8.7-2.4,20.1,6.3,25.3c0,0,21.4,40.8,76,72.7c54.7,31.9,88.6,26.2,88.6,26.2
	c8.7,5.2,20.1,2.4,25.3-6.3v0c5.2-8.7,2.4-20.1-6.3-25.3c0,0-34.2,6.5-90.3-27.2s-74.4-71.7-74.4-71.7
	C996.1,387.3,984.8,390.1,979.6,398.8z"/>
<g>
	<path class="st4" d="M1163.3,518.8l-2.5,11.1l34.6,7.9c3.1,0.7,6.1-1.2,6.8-4.3v0c0.7-3.1-1.2-6.1-4.3-6.8L1163.3,518.8z"/>
	<path class="st4" d="M1166,507.4l-2.1,11.2l42.1,8.1c3.1,0.6,6.1-1.4,6.7-4.5v0c0.6-3.1-1.4-6.1-4.5-6.7L1166,507.4z"/>
	<path class="st4" d="M1172.1,498l-0.9,11.3l42.8,3.5c3.1,0.3,5.9-2.1,6.1-5.2l0,0c0.3-3.1-2.1-5.9-5.2-6.1L1172.1,498z"/>
	<path class="st4" d="M1167.3,489.7l1.2,11.3l42.7-4.4c3.1-0.3,5.4-3.1,5.1-6.2l0,0c-0.3-3.1-3.1-5.4-6.2-5.1L1167.3,489.7z"/>
	<path class="st4" d="M1159.7,487.2l6.1,9.6l21.8-13.9c2.6-1.7,3.4-5.2,1.7-7.8l0,0c-1.7-2.6-5.2-3.4-7.8-1.7L1159.7,487.2z"/>
	<path class="st4" d="M1166.5,485.2l9,0.7c1.7,0.1,2.9,1.6,2.7,3.2l-3.3,39.5c-0.1,1.7-1.6,2.9-3.2,2.7l-9-0.7
		c-6.2-0.5-10.9-6-10.4-12.2l1.9-22.9C1154.8,489.4,1160.3,484.7,1166.5,485.2z"/>
</g>
<path class="st3" d="M740.3,506.2L740.3,506.2c5.9,8.3,17.4,10.3,25.7,4.5c0,0,27.2-50.6,56.8-71.4c29.6-20.8,94.9-35.3,94.9-35.3
	c8.3-5.9,10.3-17.4,4.5-25.7v0c-5.9-8.3-14.9-6.4-25.7-4.5c0,0-64.2,13.6-94.3,34.8c-30.1,21.1-57.5,71.9-57.5,71.9
	C736.4,486.3,734.4,497.8,740.3,506.2z"/>
<g>
	<path class="st4" d="M737.6,498.3l-7.2-8.8l-27.6,22.4c-2.4,2-2.8,5.6-0.8,8v0c2,2.4,5.6,2.8,8,0.8L737.6,498.3z"/>
	<path class="st4" d="M745,507.5l-7.5-8.6l-32.4,28.2c-2.4,2.1-2.6,5.6-0.6,8h0c2.1,2.4,5.6,2.6,8,0.6L745,507.5z"/>
	<path class="st4" d="M748.6,518.1l-8.3-7.7l-29.2,31.5c-2.1,2.3-2,5.9,0.3,8l0,0c2.3,2.1,5.9,2,8-0.3L748.6,518.1z"/>
	<path class="st4" d="M758,519.4l-9.6-6.1l-22.9,36.3c-1.7,2.7-0.9,6.2,1.8,7.8h0c2.7,1.7,6.2,0.9,7.8-1.8L758,519.4z"/>
	<path class="st4" d="M764.7,515l-11.3-1.1l-2.5,25.7c-0.3,3.1,2,5.9,5.1,6.2l0,0c3.1,0.3,5.9-2,6.2-5.1L764.7,515z"/>
	<path class="st4" d="M762.1,521.6l-6.2,6.6c-1.1,1.2-3,1.3-4.2,0.2l-29.1-27c-1.2-1.1-1.3-3-0.2-4.2l6.2-6.6
		c4.3-4.6,11.4-4.9,16-0.6l16.9,15.6C766,509.8,766.3,517,762.1,521.6z"/>
</g>
<path class="st2" d="M939.3,649.2h-1.3c-41.6,0-75.4-34.2-75.4-75.8v-0.2h152v0.2C1014.6,615,980.9,649.2,939.3,649.2z"/>
<path class="st3" d="M945.8,365.6L945.8,365.6c38,0,68.8,21.5,68.8,59.5v148h-152v-53.7c-1.6-53.8,2.4-109.8,31.7-139
	C907.4,367.3,936.4,365.6,945.8,365.6z"/>
<path class="st4" d="M975.3,368.4c0,13.4-10.9,24.5-24.3,24.5h0h-0.2c-13.4,0-24.5-11.1-24.5-24.5v-21.5h49V368.4z"/>
<path class="st5" d="M926.3,362.8c9.5,4.1,19.4,6.3,28.9,6.3c6.6,0,13.4-1.1,20.1-3.1v-15.5h-49V362.8z"/>
<path class="st4" d="M955.2,357.8c-34.9,0-76.8-30.5-76.8-73.2V156.1h154.1v128.5C1032.4,327.4,1008.1,357.8,955.2,357.8z"/>
<rect x="860.2" y="213.2" class="st1" width="36.3" height="39"/>
<circle class="st4" cx="878" cy="250" r="21.9"/>
<path class="st6" d="M873.6,253c0-4.3,3.5-7.8,7.8-7.8c1.2,0,2.3,0.3,3.3,0.7c-1.4-2.3-3.8-3.8-6.7-3.8c-4.3,0-7.8,3.5-7.8,7.8
	c0,3.1,1.8,5.8,4.5,7C874,255.8,873.6,254.5,873.6,253z"/>
<path class="st1" d="M891.1,152.1v0.4h-9.6c-11.7,0-21.2,9.3-21.2,20.9l0-0.2v29.9v24.6h36.3v-11.1c0-7.4,5.7-13.3,13.2-13.3h107.8
	c14.1,0,25.6-11.6,25.6-25.7v-51.3H916.9C902.8,126.2,891.1,138,891.1,152.1z"/>
<path class="st7" d="M963.7,287.7c0,13.6,11.1,24.7,24.7,24.7h0c13.6,0,24.7-11.1,24.7-24.7"/>
<path class="st6" d="M988.2,261.7v15.9c0,0.7,0.9,1.3,1.6,1.3h9.4c2.6,0,4-3,2.3-4.9l-10.9-13C989.9,259.9,988.2,260.5,988.2,261.7z
	"/>
<ellipse class="st1" cx="954.3" cy="252.6" rx="5" ry="8.8"/>
<ellipse class="st1" cx="1017.8" cy="252.6" rx="5" ry="8.8"/>
</svg>
